<?xml version="1.0" encoding="UTF-8" standalone="no"?>
<!-- Created with Inkscape (http://www.inkscape.org/) -->

<svg
   width="48"
   height="48"
   viewBox="0 0 12.699999 12.7"
   version="1.1"
   id="svg1"
   inkscape:version="1.3.2 (091e20ef0f, 2023-11-25)"
   sodipodi:docname="favicon-48x48px.svg"
   inkscape:export-filename="favicon.png"
   inkscape:export-xdpi="96"
   inkscape:export-ydpi="96"
   xmlns:inkscape="http://www.inkscape.org/namespaces/inkscape"
   xmlns:sodipodi="http://sodipodi.sourceforge.net/DTD/sodipodi-0.dtd"
   xmlns="http://www.w3.org/2000/svg"
   xmlns:svg="http://www.w3.org/2000/svg">
  <sodipodi:namedview
     id="namedview1"
     pagecolor="#363636"
     bordercolor="#000000"
     borderopacity="0.25"
     inkscape:showpageshadow="2"
     inkscape:pageopacity="0.0"
     inkscape:pagecheckerboard="0"
     inkscape:deskcolor="#d1d1d1"
     inkscape:document-units="mm"
     inkscape:zoom="5.9152635"
     inkscape:cx="28.823737"
     inkscape:cy="49.532874"
     inkscape:window-width="1920"
     inkscape:window-height="1021"
     inkscape:window-x="0"
     inkscape:window-y="0"
     inkscape:window-maximized="1"
     inkscape:current-layer="layer1" />
  <defs
     id="defs1" />
  <g
     inkscape:label="Layer 1"
     inkscape:groupmode="layer"
     id="layer1">
    <circle
       style="fill:#ffffff;stroke-width:3.1142;stroke-linejoin:bevel;stroke-dasharray:6.22837, 3.1142;-inkscape-stroke:none;paint-order:markers fill stroke"
       id="path1"
       cx="6.3499999"
       cy="6.3499999"
       r="6.3499999" />
    <path
       id="path1415"
       style="color:#000000;font-variation-settings:normal;vector-effect:none;fill:#1a1a1a;fill-opacity:1;stroke-width:12.2864;stroke-linecap:round;stroke-linejoin:bevel;stroke-miterlimit:4;stroke-dasharray:none;stroke-dashoffset:0;stroke-opacity:1;-inkscape-stroke:none;paint-order:stroke fill markers;stop-color:#000000"
       d="m 8.3396271,1.8278349 -2.522852,4.3654858 a 0.15296042,0.15296042 0 0 0 0.05056,0.2063831 L 6.232115,6.6270653 a 1195.6897,1195.6897 0 0 1 0.2513882,0.1565773 l 0.3647807,0.227584 A 0.15292356,0.15292356 0 0 0 7.0558527,6.9665299 L 8.2520553,5.182777 C 8.2978923,5.11497 8.3766364,5.11157 8.4251084,5.177357 8.8956611,5.8419221 9.0273887,6.7055621 8.7391245,7.5024817 8.7121615,7.5792937 8.6582255,7.7012417 8.6237777,7.7743789 8.1321912,8.764733 7.0647514,9.3201128 5.9714229,9.1544619 5.8904552,9.1405855 5.8123246,9.1929578 5.7961459,9.2727464 L 5.4944657,10.707487 c -0.023595,0.08006 0.033707,0.158653 0.1154133,0.172703 1.906819,0.333207 3.8151881,-0.659565 4.636833,-2.4124744 0.03371,-0.073975 0.08535,-0.1957723 0.117639,-0.2719978 C 10.974385,6.6209419 10.594908,4.8484331 9.4528409,3.6592619 9.3955413,3.6004793 9.385429,3.4994632 9.4292503,3.4314351 L 9.8673071,2.7781148 A 0.1430847,0.1430847 0 0 0 9.8228102,2.5770373 L 9.3064827,2.2552066 A 4091.4129,4091.4129 0 0 0 9.0554312,2.098644 L 8.5391042,1.7769422 A 0.14307624,0.14307624 0 0 0 8.3407716,1.8267561 Z M 4.4636993,2.7734317 C 3.3932923,3.2947945 2.5858014,4.2380035 2.2353136,5.3758324 2.2117181,5.4540551 2.1780118,5.5817436 2.1594722,5.66136 c -0.271276,1.1592454 -0.048539,2.3813085 0.6120561,3.3712501 0.045842,0.067806 0.1383344,0.082808 0.205277,0.034984 L 4.1664683,8.211786 C 4.2305148,8.1641296 4.247368,8.0718189 4.2035406,8.0028747 3.8490081,7.4440023 3.7267858,6.7696755 3.8624236,6.1218223 3.8860178,6.0418486 3.9136582,5.913842 3.938333,5.8363818 4.1481942,5.2086047 4.5933996,4.6880502 5.1813211,4.3842543 5.2543933,4.3466399 5.2875006,4.2597467 5.2543933,4.1850236 L 4.6581125,2.8458822 C 4.6264283,2.77115 4.5382496,2.7375113 4.4644302,2.7732058 Z" />
  </g>
</svg>
